<mxfile host="app.diagrams.net" modified="2023-06-11T03:03:15.441Z" agent="Mozilla/5.0 (Windows NT 10.0; Win64; x64) AppleWebKit/537.36 (KHTML, like Gecko) Chrome/114.0.0.0 Safari/537.36 Edg/114.0.1823.43" etag="FGLkmUGySFrCC8FeafVb" version="21.3.8" type="github">
  <diagram name="PÃ¡gina-1" id="HEclCTAunb70qZydERij">
    <mxGraphModel dx="1877" dy="573" grid="1" gridSize="10" guides="1" tooltips="1" connect="1" arrows="1" fold="1" page="1" pageScale="1" pageWidth="827" pageHeight="1169" math="0" shadow="0">
      <root>
        <mxCell id="0" />
        <mxCell id="1" parent="0" />
        <mxCell id="B1qOSAYwEGg4IR81AXaV-1" value="&lt;font style=&quot;font-size: 20px;&quot;&gt;User&lt;/font&gt;" style="rounded=0;whiteSpace=wrap;html=1;" parent="1" vertex="1">
          <mxGeometry x="130" y="230" width="120" height="60" as="geometry" />
        </mxCell>
        <mxCell id="B1qOSAYwEGg4IR81AXaV-2" value="&lt;span style=&quot;font-size: 20px;&quot;&gt;Post&lt;/span&gt;" style="rounded=0;whiteSpace=wrap;html=1;" parent="1" vertex="1">
          <mxGeometry x="540" y="230" width="120" height="60" as="geometry" />
        </mxCell>
        <mxCell id="B1qOSAYwEGg4IR81AXaV-3" value="&lt;font style=&quot;font-size: 18px;&quot;&gt;Create&lt;/font&gt;" style="rhombus;whiteSpace=wrap;html=1;" parent="1" vertex="1">
          <mxGeometry x="340" y="220" width="120" height="80" as="geometry" />
        </mxCell>
        <mxCell id="B1qOSAYwEGg4IR81AXaV-5" value="" style="endArrow=none;html=1;rounded=0;exitX=1;exitY=0.5;exitDx=0;exitDy=0;entryX=0;entryY=0.5;entryDx=0;entryDy=0;" parent="1" source="B1qOSAYwEGg4IR81AXaV-60" target="B1qOSAYwEGg4IR81AXaV-3" edge="1">
          <mxGeometry width="50" height="50" relative="1" as="geometry">
            <mxPoint x="390" y="320" as="sourcePoint" />
            <mxPoint x="440" y="270" as="targetPoint" />
          </mxGeometry>
        </mxCell>
        <mxCell id="B1qOSAYwEGg4IR81AXaV-6" value="" style="endArrow=none;html=1;rounded=0;entryX=1;entryY=0.5;entryDx=0;entryDy=0;" parent="1" source="B1qOSAYwEGg4IR81AXaV-2" target="B1qOSAYwEGg4IR81AXaV-3" edge="1">
          <mxGeometry width="50" height="50" relative="1" as="geometry">
            <mxPoint x="390" y="320" as="sourcePoint" />
            <mxPoint x="440" y="270" as="targetPoint" />
          </mxGeometry>
        </mxCell>
        <mxCell id="B1qOSAYwEGg4IR81AXaV-8" value="&lt;span style=&quot;font-size: 18px;&quot;&gt;Follow&lt;/span&gt;" style="rhombus;whiteSpace=wrap;html=1;" parent="1" vertex="1">
          <mxGeometry x="130" y="90" width="120" height="80" as="geometry" />
        </mxCell>
        <mxCell id="B1qOSAYwEGg4IR81AXaV-13" value="" style="endArrow=none;html=1;rounded=0;entryX=1;entryY=0.5;entryDx=0;entryDy=0;" parent="1" target="B1qOSAYwEGg4IR81AXaV-8" edge="1">
          <mxGeometry width="50" height="50" relative="1" as="geometry">
            <mxPoint x="250" y="230" as="sourcePoint" />
            <mxPoint x="300" y="180" as="targetPoint" />
          </mxGeometry>
        </mxCell>
        <mxCell id="B1qOSAYwEGg4IR81AXaV-14" value="" style="endArrow=none;html=1;rounded=0;exitX=0;exitY=0;exitDx=0;exitDy=0;entryX=0;entryY=0.5;entryDx=0;entryDy=0;" parent="1" source="B1qOSAYwEGg4IR81AXaV-1" target="B1qOSAYwEGg4IR81AXaV-8" edge="1">
          <mxGeometry width="50" height="50" relative="1" as="geometry">
            <mxPoint x="120" y="230" as="sourcePoint" />
            <mxPoint x="170" y="180" as="targetPoint" />
          </mxGeometry>
        </mxCell>
        <mxCell id="B1qOSAYwEGg4IR81AXaV-17" value="&lt;font style=&quot;font-size: 16px;&quot;&gt;(0, n)&lt;/font&gt;" style="text;html=1;strokeColor=none;fillColor=none;align=center;verticalAlign=middle;whiteSpace=wrap;rounded=0;" parent="1" vertex="1">
          <mxGeometry x="270" y="230" width="60" height="30" as="geometry" />
        </mxCell>
        <mxCell id="B1qOSAYwEGg4IR81AXaV-18" value="&lt;font style=&quot;font-size: 16px;&quot;&gt;(1, 1)&lt;/font&gt;" style="text;html=1;strokeColor=none;fillColor=none;align=center;verticalAlign=middle;whiteSpace=wrap;rounded=0;" parent="1" vertex="1">
          <mxGeometry x="460" y="230" width="60" height="30" as="geometry" />
        </mxCell>
        <mxCell id="B1qOSAYwEGg4IR81AXaV-19" value="&lt;font style=&quot;font-size: 16px;&quot;&gt;(0, n)&lt;/font&gt;" style="text;html=1;strokeColor=none;fillColor=none;align=center;verticalAlign=middle;whiteSpace=wrap;rounded=0;rotation=-90;" parent="1" vertex="1">
          <mxGeometry x="80" y="170" width="60" height="30" as="geometry" />
        </mxCell>
        <mxCell id="B1qOSAYwEGg4IR81AXaV-20" value="&lt;font style=&quot;font-size: 16px;&quot;&gt;(0, n)&lt;/font&gt;" style="text;html=1;strokeColor=none;fillColor=none;align=center;verticalAlign=middle;whiteSpace=wrap;rounded=0;rotation=90;" parent="1" vertex="1">
          <mxGeometry x="240" y="170" width="60" height="30" as="geometry" />
        </mxCell>
        <mxCell id="B1qOSAYwEGg4IR81AXaV-21" value="" style="ellipse;whiteSpace=wrap;html=1;aspect=fixed;fillColor=#FFFFFF;" parent="1" vertex="1">
          <mxGeometry x="40" y="220" width="20" height="20" as="geometry" />
        </mxCell>
        <mxCell id="B1qOSAYwEGg4IR81AXaV-34" style="edgeStyle=orthogonalEdgeStyle;rounded=0;orthogonalLoop=1;jettySize=auto;html=1;exitX=0;exitY=1;exitDx=0;exitDy=0;" parent="1" source="B1qOSAYwEGg4IR81AXaV-22" target="B1qOSAYwEGg4IR81AXaV-21" edge="1">
          <mxGeometry relative="1" as="geometry" />
        </mxCell>
        <mxCell id="B1qOSAYwEGg4IR81AXaV-22" value="" style="ellipse;whiteSpace=wrap;html=1;aspect=fixed;strokeColor=#F0F0F0;fillColor=#F0F0F0;" parent="1" vertex="1">
          <mxGeometry x="40" y="250" width="20" height="20" as="geometry" />
        </mxCell>
        <mxCell id="B1qOSAYwEGg4IR81AXaV-23" value="" style="ellipse;whiteSpace=wrap;html=1;aspect=fixed;" parent="1" vertex="1">
          <mxGeometry x="40" y="290" width="20" height="20" as="geometry" />
        </mxCell>
        <mxCell id="B1qOSAYwEGg4IR81AXaV-24" value="" style="ellipse;whiteSpace=wrap;html=1;aspect=fixed;" parent="1" vertex="1">
          <mxGeometry x="40" y="320" width="20" height="20" as="geometry" />
        </mxCell>
        <mxCell id="B1qOSAYwEGg4IR81AXaV-27" value="" style="endArrow=none;html=1;rounded=0;exitX=1;exitY=0.5;exitDx=0;exitDy=0;entryX=0;entryY=0;entryDx=0;entryDy=0;" parent="1" source="B1qOSAYwEGg4IR81AXaV-21" target="B1qOSAYwEGg4IR81AXaV-1" edge="1">
          <mxGeometry width="50" height="50" relative="1" as="geometry">
            <mxPoint x="70" y="290" as="sourcePoint" />
            <mxPoint x="120" y="240" as="targetPoint" />
          </mxGeometry>
        </mxCell>
        <mxCell id="B1qOSAYwEGg4IR81AXaV-28" value="" style="endArrow=none;html=1;rounded=0;entryX=0;entryY=0.25;entryDx=0;entryDy=0;exitX=1;exitY=0.5;exitDx=0;exitDy=0;" parent="1" source="B1qOSAYwEGg4IR81AXaV-22" target="B1qOSAYwEGg4IR81AXaV-1" edge="1">
          <mxGeometry width="50" height="50" relative="1" as="geometry">
            <mxPoint x="70" y="310" as="sourcePoint" />
            <mxPoint x="120" y="260" as="targetPoint" />
            <Array as="points">
              <mxPoint x="100" y="260" />
            </Array>
          </mxGeometry>
        </mxCell>
        <mxCell id="B1qOSAYwEGg4IR81AXaV-29" value="" style="endArrow=none;html=1;rounded=0;entryX=0;entryY=0.5;entryDx=0;entryDy=0;exitX=1;exitY=0.5;exitDx=0;exitDy=0;" parent="1" source="B1qOSAYwEGg4IR81AXaV-23" target="B1qOSAYwEGg4IR81AXaV-1" edge="1">
          <mxGeometry width="50" height="50" relative="1" as="geometry">
            <mxPoint x="70" y="300" as="sourcePoint" />
            <mxPoint x="130" y="310" as="targetPoint" />
            <Array as="points">
              <mxPoint x="100" y="300" />
            </Array>
          </mxGeometry>
        </mxCell>
        <mxCell id="B1qOSAYwEGg4IR81AXaV-32" value="" style="endArrow=none;html=1;rounded=0;exitX=1;exitY=0.5;exitDx=0;exitDy=0;entryX=0;entryY=0.75;entryDx=0;entryDy=0;" parent="1" source="B1qOSAYwEGg4IR81AXaV-24" target="B1qOSAYwEGg4IR81AXaV-1" edge="1">
          <mxGeometry width="50" height="50" relative="1" as="geometry">
            <mxPoint x="70" y="350" as="sourcePoint" />
            <mxPoint x="120" y="300" as="targetPoint" />
            <Array as="points">
              <mxPoint x="100" y="330" />
              <mxPoint x="130" y="330" />
            </Array>
          </mxGeometry>
        </mxCell>
        <mxCell id="B1qOSAYwEGg4IR81AXaV-35" style="edgeStyle=orthogonalEdgeStyle;rounded=0;orthogonalLoop=1;jettySize=auto;html=1;exitX=0.5;exitY=1;exitDx=0;exitDy=0;" parent="1" source="B1qOSAYwEGg4IR81AXaV-22" target="B1qOSAYwEGg4IR81AXaV-22" edge="1">
          <mxGeometry relative="1" as="geometry" />
        </mxCell>
        <mxCell id="B1qOSAYwEGg4IR81AXaV-36" value="&lt;span style=&quot;font-size: 16px;&quot;&gt;id_name&lt;/span&gt;" style="text;html=1;strokeColor=none;fillColor=none;align=center;verticalAlign=middle;whiteSpace=wrap;rounded=0;" parent="1" vertex="1">
          <mxGeometry x="-30" y="215" width="60" height="30" as="geometry" />
        </mxCell>
        <mxCell id="B1qOSAYwEGg4IR81AXaV-37" value="&lt;span style=&quot;font-size: 16px;&quot;&gt;email&lt;/span&gt;" style="text;html=1;strokeColor=none;fillColor=none;align=center;verticalAlign=middle;whiteSpace=wrap;rounded=0;" parent="1" vertex="1">
          <mxGeometry x="-30" y="245" width="60" height="30" as="geometry" />
        </mxCell>
        <mxCell id="B1qOSAYwEGg4IR81AXaV-38" value="&lt;span style=&quot;font-size: 16px;&quot;&gt;password&lt;/span&gt;" style="text;html=1;strokeColor=none;fillColor=none;align=center;verticalAlign=middle;whiteSpace=wrap;rounded=0;" parent="1" vertex="1">
          <mxGeometry x="-40" y="285" width="60" height="30" as="geometry" />
        </mxCell>
        <mxCell id="B1qOSAYwEGg4IR81AXaV-39" value="&lt;span style=&quot;font-size: 16px;&quot;&gt;profile picture&lt;/span&gt;" style="text;html=1;strokeColor=none;fillColor=none;align=center;verticalAlign=middle;whiteSpace=wrap;rounded=0;" parent="1" vertex="1">
          <mxGeometry x="-70" y="315" width="100" height="30" as="geometry" />
        </mxCell>
        <mxCell id="B1qOSAYwEGg4IR81AXaV-40" value="&lt;font style=&quot;font-size: 16px;&quot;&gt;(0, 1)&lt;/font&gt;" style="text;html=1;strokeColor=none;fillColor=none;align=center;verticalAlign=middle;whiteSpace=wrap;rounded=0;" parent="1" vertex="1">
          <mxGeometry x="70" y="330" width="60" height="30" as="geometry" />
        </mxCell>
        <mxCell id="B1qOSAYwEGg4IR81AXaV-41" value="" style="ellipse;whiteSpace=wrap;html=1;aspect=fixed;fillColor=#1A1A1A;" parent="1" vertex="1">
          <mxGeometry x="730" y="190" width="20" height="20" as="geometry" />
        </mxCell>
        <mxCell id="B1qOSAYwEGg4IR81AXaV-42" value="" style="ellipse;whiteSpace=wrap;html=1;aspect=fixed;" parent="1" vertex="1">
          <mxGeometry x="730" y="230" width="20" height="20" as="geometry" />
        </mxCell>
        <mxCell id="B1qOSAYwEGg4IR81AXaV-43" value="" style="ellipse;whiteSpace=wrap;html=1;aspect=fixed;" parent="1" vertex="1">
          <mxGeometry x="730" y="265" width="20" height="20" as="geometry" />
        </mxCell>
        <mxCell id="B1qOSAYwEGg4IR81AXaV-44" value="" style="ellipse;whiteSpace=wrap;html=1;aspect=fixed;" parent="1" vertex="1">
          <mxGeometry x="730" y="310" width="20" height="20" as="geometry" />
        </mxCell>
        <mxCell id="B1qOSAYwEGg4IR81AXaV-59" value="" style="endArrow=none;html=1;rounded=0;entryX=0.5;entryY=0;entryDx=0;entryDy=0;exitX=0.5;exitY=0;exitDx=0;exitDy=0;" parent="1" source="B1qOSAYwEGg4IR81AXaV-60" target="B1qOSAYwEGg4IR81AXaV-63" edge="1">
          <mxGeometry width="50" height="50" relative="1" as="geometry">
            <mxPoint x="357" y="200" as="sourcePoint" />
            <mxPoint x="557" y="190" as="targetPoint" />
            <Array as="points">
              <mxPoint x="320" y="160" />
              <mxPoint x="698" y="160" />
            </Array>
          </mxGeometry>
        </mxCell>
        <mxCell id="B1qOSAYwEGg4IR81AXaV-62" value="" style="endArrow=none;html=1;rounded=0;exitX=1;exitY=0.5;exitDx=0;exitDy=0;entryX=0;entryY=0.5;entryDx=0;entryDy=0;" parent="1" source="B1qOSAYwEGg4IR81AXaV-1" target="B1qOSAYwEGg4IR81AXaV-60" edge="1">
          <mxGeometry width="50" height="50" relative="1" as="geometry">
            <mxPoint x="250" y="260" as="sourcePoint" />
            <mxPoint x="340" y="260" as="targetPoint" />
          </mxGeometry>
        </mxCell>
        <mxCell id="B1qOSAYwEGg4IR81AXaV-60" value="" style="ellipse;whiteSpace=wrap;html=1;aspect=fixed;fillColor=#FFFFFF;" parent="1" vertex="1">
          <mxGeometry x="315" y="252.5" width="15" height="15" as="geometry" />
        </mxCell>
        <mxCell id="B1qOSAYwEGg4IR81AXaV-66" value="" style="endArrow=none;html=1;rounded=0;exitX=1;exitY=0;exitDx=0;exitDy=0;entryX=0;entryY=0.5;entryDx=0;entryDy=0;" parent="1" source="B1qOSAYwEGg4IR81AXaV-2" target="B1qOSAYwEGg4IR81AXaV-63" edge="1">
          <mxGeometry width="50" height="50" relative="1" as="geometry">
            <mxPoint x="660" y="230" as="sourcePoint" />
            <mxPoint x="730" y="200" as="targetPoint" />
            <Array as="points">
              <mxPoint x="660" y="200" />
            </Array>
          </mxGeometry>
        </mxCell>
        <mxCell id="B1qOSAYwEGg4IR81AXaV-63" value="" style="ellipse;whiteSpace=wrap;html=1;aspect=fixed;fillColor=#FFFFFF;" parent="1" vertex="1">
          <mxGeometry x="690" y="192.5" width="15" height="15" as="geometry" />
        </mxCell>
        <mxCell id="B1qOSAYwEGg4IR81AXaV-67" value="" style="endArrow=none;html=1;rounded=0;exitX=1;exitY=0.5;exitDx=0;exitDy=0;entryX=0;entryY=0.5;entryDx=0;entryDy=0;" parent="1" source="B1qOSAYwEGg4IR81AXaV-63" target="B1qOSAYwEGg4IR81AXaV-41" edge="1">
          <mxGeometry width="50" height="50" relative="1" as="geometry">
            <mxPoint x="430" y="240" as="sourcePoint" />
            <mxPoint x="480" y="190" as="targetPoint" />
          </mxGeometry>
        </mxCell>
        <mxCell id="B1qOSAYwEGg4IR81AXaV-68" value="" style="endArrow=none;html=1;rounded=0;entryX=0;entryY=0.5;entryDx=0;entryDy=0;" parent="1" target="B1qOSAYwEGg4IR81AXaV-42" edge="1">
          <mxGeometry width="50" height="50" relative="1" as="geometry">
            <mxPoint x="660" y="240" as="sourcePoint" />
            <mxPoint x="570" y="190" as="targetPoint" />
          </mxGeometry>
        </mxCell>
        <mxCell id="B1qOSAYwEGg4IR81AXaV-69" value="" style="endArrow=none;html=1;rounded=0;entryX=0;entryY=0.5;entryDx=0;entryDy=0;exitX=1;exitY=0.75;exitDx=0;exitDy=0;" parent="1" source="B1qOSAYwEGg4IR81AXaV-2" target="B1qOSAYwEGg4IR81AXaV-43" edge="1">
          <mxGeometry width="50" height="50" relative="1" as="geometry">
            <mxPoint x="670" y="280" as="sourcePoint" />
            <mxPoint x="570" y="190" as="targetPoint" />
          </mxGeometry>
        </mxCell>
        <mxCell id="B1qOSAYwEGg4IR81AXaV-70" value="" style="endArrow=none;html=1;rounded=0;exitX=1;exitY=1;exitDx=0;exitDy=0;entryX=0;entryY=0.5;entryDx=0;entryDy=0;" parent="1" source="B1qOSAYwEGg4IR81AXaV-2" target="B1qOSAYwEGg4IR81AXaV-44" edge="1">
          <mxGeometry width="50" height="50" relative="1" as="geometry">
            <mxPoint x="520" y="240" as="sourcePoint" />
            <mxPoint x="570" y="190" as="targetPoint" />
            <Array as="points">
              <mxPoint x="660" y="320" />
            </Array>
          </mxGeometry>
        </mxCell>
        <mxCell id="B1qOSAYwEGg4IR81AXaV-71" value="&lt;span style=&quot;font-size: 16px;&quot;&gt;number_post&lt;/span&gt;" style="text;html=1;strokeColor=none;fillColor=none;align=center;verticalAlign=middle;whiteSpace=wrap;rounded=0;" parent="1" vertex="1">
          <mxGeometry x="780" y="185" width="60" height="30" as="geometry" />
        </mxCell>
        <mxCell id="B1qOSAYwEGg4IR81AXaV-73" value="&lt;span style=&quot;font-size: 16px;&quot;&gt;description&lt;/span&gt;" style="text;html=1;strokeColor=none;fillColor=none;align=center;verticalAlign=middle;whiteSpace=wrap;rounded=0;" parent="1" vertex="1">
          <mxGeometry x="767" y="222.5" width="60" height="30" as="geometry" />
        </mxCell>
        <mxCell id="B1qOSAYwEGg4IR81AXaV-75" value="&lt;span style=&quot;font-size: 16px;&quot;&gt;creation_date&lt;/span&gt;" style="text;html=1;strokeColor=none;fillColor=none;align=center;verticalAlign=middle;whiteSpace=wrap;rounded=0;" parent="1" vertex="1">
          <mxGeometry x="780" y="260" width="60" height="30" as="geometry" />
        </mxCell>
        <mxCell id="B1qOSAYwEGg4IR81AXaV-76" value="&lt;span style=&quot;font-size: 16px;&quot;&gt;image&lt;br&gt;&lt;/span&gt;" style="text;html=1;strokeColor=none;fillColor=none;align=center;verticalAlign=middle;whiteSpace=wrap;rounded=0;" parent="1" vertex="1">
          <mxGeometry x="767" y="305" width="60" height="30" as="geometry" />
        </mxCell>
        <mxCell id="B1qOSAYwEGg4IR81AXaV-77" value="&lt;font style=&quot;font-size: 16px;&quot;&gt;(0, 1)&lt;/font&gt;" style="text;html=1;strokeColor=none;fillColor=none;align=center;verticalAlign=middle;whiteSpace=wrap;rounded=0;" parent="1" vertex="1">
          <mxGeometry x="667.5" y="210" width="60" height="30" as="geometry" />
        </mxCell>
        <mxCell id="B1qOSAYwEGg4IR81AXaV-78" value="&lt;font style=&quot;font-size: 16px;&quot;&gt;(0, 1)&lt;/font&gt;" style="text;html=1;strokeColor=none;fillColor=none;align=center;verticalAlign=middle;whiteSpace=wrap;rounded=0;" parent="1" vertex="1">
          <mxGeometry x="667.5" y="210" width="60" height="30" as="geometry" />
        </mxCell>
        <mxCell id="B1qOSAYwEGg4IR81AXaV-79" value="&lt;font style=&quot;font-size: 16px;&quot;&gt;(1, 10)&lt;/font&gt;" style="text;html=1;strokeColor=none;fillColor=none;align=center;verticalAlign=middle;whiteSpace=wrap;rounded=0;" parent="1" vertex="1">
          <mxGeometry x="667.5" y="285" width="60" height="30" as="geometry" />
        </mxCell>
        <mxCell id="B1qOSAYwEGg4IR81AXaV-81" value="&lt;font style=&quot;font-size: 14px;&quot;&gt;Write comments&lt;/font&gt;" style="rhombus;whiteSpace=wrap;html=1;" parent="1" vertex="1">
          <mxGeometry x="354" y="400" width="120" height="80" as="geometry" />
        </mxCell>
        <mxCell id="B1qOSAYwEGg4IR81AXaV-82" value="" style="endArrow=none;html=1;rounded=0;entryX=0.582;entryY=1.01;entryDx=0;entryDy=0;exitX=0;exitY=0.5;exitDx=0;exitDy=0;entryPerimeter=0;" parent="1" source="B1qOSAYwEGg4IR81AXaV-81" target="B1qOSAYwEGg4IR81AXaV-1" edge="1">
          <mxGeometry width="50" height="50" relative="1" as="geometry">
            <mxPoint x="350" y="330" as="sourcePoint" />
            <mxPoint x="400" y="280" as="targetPoint" />
            <Array as="points">
              <mxPoint x="200" y="440" />
            </Array>
          </mxGeometry>
        </mxCell>
        <mxCell id="B1qOSAYwEGg4IR81AXaV-83" value="" style="endArrow=none;html=1;rounded=0;entryX=1;entryY=0.5;entryDx=0;entryDy=0;exitX=0.5;exitY=1;exitDx=0;exitDy=0;" parent="1" source="B1qOSAYwEGg4IR81AXaV-2" target="B1qOSAYwEGg4IR81AXaV-81" edge="1">
          <mxGeometry width="50" height="50" relative="1" as="geometry">
            <mxPoint x="667.5" y="495" as="sourcePoint" />
            <mxPoint x="503.5" y="345" as="targetPoint" />
            <Array as="points">
              <mxPoint x="600" y="440" />
            </Array>
          </mxGeometry>
        </mxCell>
        <mxCell id="B1qOSAYwEGg4IR81AXaV-84" value="" style="ellipse;whiteSpace=wrap;html=1;aspect=fixed;fillColor=#1A1A1A;" parent="1" vertex="1">
          <mxGeometry x="390" y="315" width="20" height="20" as="geometry" />
        </mxCell>
        <mxCell id="B1qOSAYwEGg4IR81AXaV-85" value="&lt;span style=&quot;font-size: 16px;&quot;&gt;content&lt;/span&gt;" style="text;html=1;strokeColor=none;fillColor=none;align=center;verticalAlign=middle;whiteSpace=wrap;rounded=0;" parent="1" vertex="1">
          <mxGeometry x="420" y="310" width="60" height="30" as="geometry" />
        </mxCell>
        <mxCell id="B1qOSAYwEGg4IR81AXaV-88" value="" style="ellipse;whiteSpace=wrap;html=1;aspect=fixed;" parent="1" vertex="1">
          <mxGeometry x="430" y="350" width="20" height="20" as="geometry" />
        </mxCell>
        <mxCell id="B1qOSAYwEGg4IR81AXaV-89" value="&lt;span style=&quot;font-size: 16px;&quot;&gt;creation_date&lt;/span&gt;" style="text;html=1;strokeColor=none;fillColor=none;align=center;verticalAlign=middle;whiteSpace=wrap;rounded=0;" parent="1" vertex="1">
          <mxGeometry x="480" y="345" width="60" height="30" as="geometry" />
        </mxCell>
        <mxCell id="B1qOSAYwEGg4IR81AXaV-92" value="" style="endArrow=none;html=1;rounded=0;exitX=0.5;exitY=1;exitDx=0;exitDy=0;entryX=0.375;entryY=0.132;entryDx=0;entryDy=0;entryPerimeter=0;" parent="1" source="B1qOSAYwEGg4IR81AXaV-84" target="B1qOSAYwEGg4IR81AXaV-81" edge="1">
          <mxGeometry width="50" height="50" relative="1" as="geometry">
            <mxPoint x="350" y="330" as="sourcePoint" />
            <mxPoint x="400" y="280" as="targetPoint" />
          </mxGeometry>
        </mxCell>
        <mxCell id="B1qOSAYwEGg4IR81AXaV-93" value="" style="endArrow=none;html=1;rounded=0;entryX=0.5;entryY=1;entryDx=0;entryDy=0;" parent="1" target="B1qOSAYwEGg4IR81AXaV-88" edge="1">
          <mxGeometry width="50" height="50" relative="1" as="geometry">
            <mxPoint x="440" y="420" as="sourcePoint" />
            <mxPoint x="400" y="280" as="targetPoint" />
          </mxGeometry>
        </mxCell>
        <mxCell id="gL6RvU6V7hFbO1GJxGKE-1" value="&lt;font style=&quot;font-size: 16px;&quot;&gt;(0, n)&lt;/font&gt;" style="text;html=1;strokeColor=none;fillColor=none;align=center;verticalAlign=middle;whiteSpace=wrap;rounded=0;" vertex="1" parent="1">
          <mxGeometry x="255" y="400" width="60" height="30" as="geometry" />
        </mxCell>
        <mxCell id="gL6RvU6V7hFbO1GJxGKE-2" value="&lt;font style=&quot;font-size: 16px;&quot;&gt;(0, n)&lt;/font&gt;" style="text;html=1;strokeColor=none;fillColor=none;align=center;verticalAlign=middle;whiteSpace=wrap;rounded=0;" vertex="1" parent="1">
          <mxGeometry x="500" y="400" width="60" height="30" as="geometry" />
        </mxCell>
      </root>
    </mxGraphModel>
  </diagram>
</mxfile>
